<?xml version="1.0" encoding="utf-8"?>
<svg height="100.5" width="100.5" xmlns="http://www.w3.org/2000/svg">
  <circle cx="50" cy="50" r="42" style="fill: rgb(0, 0, 0);"/>
  <circle cx="50" cy="50" r="40" style="fill: rgb(255, 255, 255);"/>
  <g transform="matrix(1, 0, 0, 1, -420.083984, -413.912628)">
    <g style="" transform="matrix(0.051285, 0, 0, 0.051285, 423.798828, 432.259979)">
      <path d="M 1322.403 275.916 C 1288.603 229.916 1150.903 180.916 939.503 180.916 C 728.203 180.916 590.503 223.816 556.703 275.916 C 495.503 376.916 734.403 453.516 651.703 530.016 C 489.503 677.016 541.503 827.016 590.503 876.016 C 654.903 940.416 716.003 980.116 878.403 1035.316 C 973.203 1065.916 973.203 1160.916 973.203 1160.916 C 973.203 1160.916 1120.203 1020.016 844.603 906.816 C 731.403 860.816 872.103 741.416 1068.103 621.916 C 1294.903 481.016 1371.403 337.016 1322.403 275.916 Z" style=""/>
    </g>
  </g>
</svg>