<?xml version="1.0" encoding="utf-8"?>
<!-- Svg Vector Icons : http://www.onlinewebfonts.com/icon -->
<!DOCTYPE svg PUBLIC "-//W3C//DTD SVG 1.1//EN" "http://www.w3.org/Graphics/SVG/1.1/DTD/svg11.dtd">
<svg version="1.1" xmlns="http://www.w3.org/2000/svg" xmlns:xlink="http://www.w3.org/1999/xlink" x="0px" y="0px" viewBox="0 0 1000 1000" enable-background="new 0 0 1000 1000" xml:space="preserve">
<metadata> Svg Vector Icons : http://www.onlinewebfonts.com/icon </metadata>
<g><g><path d="M883.2,105c-33.8-46-171.5-95-382.9-95C289,10,151.3,52.9,117.5,105c-61.2,101,177.7,177.6,95,254.1c-162.2,147-110.2,297-61.2,346c64.4,64.4,125.5,104.1,287.9,159.3C534,895,534,990,534,990s147-140.9-128.6-254.1c-113.2-46,27.5-165.4,223.5-284.9C855.7,310.1,932.2,166.1,883.2,105z M500.4,224.4c-186.9,0-336.9-39.9-336.9-91.9s150-91.9,336.9-91.9c186.9,0,336.9,39.9,336.9,91.9S687.2,224.4,500.4,224.4z"/></g><g></g><g></g><g></g><g></g><g></g><g></g><g></g><g></g><g></g><g></g><g></g><g></g><g></g><g></g><g></g></g>
</svg>